# xmcd CD database file
#
# Track frame offsets:
#	150
#	18290
#	44113
#	59060
#	81813
#	98453
#	120373
#	139070
#	163285
#	184673
#
# Disc length: 2786 seconds
#
# Revision: 2
# Processed by: cddbd v1.5PL3 Copyright (c) Steve Scherf et al.
# Submitted via: CDex 1.51
#
DISCID=830ae00a
DTITLE=DANGER DANGER - Four The Hard Way
DYEAR=1997
DGENRE=Hard Rock
TTITLE0=Still Kickin'
TTITLE1=Sick Little Twisted Mind
TTITLE2=Jaded
TTITLE3=Captain Bring Me Down
TTITLE4=Goin' All The Way
TTITLE5=The Girl Ain't Built To Sleep Alone
TTITLE6=Goin' Goin' Gone
TTITLE7=Afraid Of Love
TTITLE8=Heartbreak Suicide
TTITLE9=I Don't Need You
EXTD=YEAR: 1997
EXTT0=Danger Danger
EXTT1=Danger Danger
EXTT2=Danger Danger
EXTT3=Danger Danger
EXTT4=Danger Danger
EXTT5=Danger Danger
EXTT6=Danger Danger
EXTT7=Danger Danger
EXTT8=Danger Danger
EXTT9=Danger Danger
PLAYORDER=
